<svg xmlns="http://www.w3.org/2000/svg" viewBox="20.000000000000014 133.11639937280557 534.9987823266654 308.7672012543888"> <svg xmlns="http://www.w3.org/2000/svg" xmlns:xlink="http://www.w3.org/1999/xlink" xmlnsSerif="http://www.serif.com/" viewBox="42.499229431152344 42.49876403808594 715.0039672851562 715.0022583007812" version="1.1" xml:space="preserve" height="168.76720125438882" width="168.76756913849428" y="203.11639937280557" x="90.00000000000001" preserveAspectRatio="xMinYMin" fill-rule="evenodd" clip-rule="evenodd" stroke-linejoin="round" stroke-miterlimit="2" style="overflow: visible;"><path transform="matrix(1.14161,-0.240515,0.309233,1.46778,-96.2347,-105.011)" d="M163.313,395.353L68.989,379.896C68.526,379.82 68.229,379.467 68.327,379.107L80.696,333.442C80.794,333.082 81.248,332.852 81.712,332.927L176.675,348.488C176.925,348.529 177.138,348.654 177.257,348.83C177.375,349.005 177.388,349.212 177.291,349.396C173.531,356.469 170.551,363.909 168.449,371.667C168.058,373.112 167.7,374.557 167.376,376L255.504,376L191.946,326.566C191.654,326.339 191.612,325.982 191.845,325.718C197.468,319.338 203.922,313.27 211.206,307.605C212.634,306.494 214.081,305.409 215.548,304.348L164.877,243.899C164.619,243.591 164.731,243.178 165.127,242.977L215.389,217.49C215.785,217.289 216.316,217.376 216.575,217.684L268.267,279.352C268.408,279.52 268.444,279.728 268.366,279.919C268.287,280.11 268.103,280.263 267.863,280.337C256.768,283.73 246.202,288.059 236.358,293.226L299.143,342.059L299.143,272.738C299.143,272.412 299.446,272.134 299.859,272.08C309.799,270.791 319.863,270.215 329.914,270.355L349.787,196.991C349.884,196.631 350.339,196.401 350.802,196.476L409.513,206.097C409.976,206.173 410.273,206.527 410.175,206.887L390.168,280.747C390.116,280.941 389.955,281.107 389.73,281.2C389.504,281.292 389.238,281.302 389.002,281.226C380.057,278.35 370.655,276.06 360.857,274.431L360.857,337.345L418.354,292.625C418.646,292.398 419.105,292.365 419.445,292.546C427.647,296.92 435.449,301.939 442.733,307.605C444.161,308.715 445.556,309.841 446.92,310.982L529.717,268.997C530.114,268.796 530.645,268.883 530.903,269.191L563.672,308.283C563.93,308.592 563.819,309.005 563.422,309.206L479.058,351.986C478.842,352.095 478.574,352.123 478.329,352.062C478.083,352.001 477.886,351.858 477.792,351.671C473.429,343.042 467.863,334.824 461.22,327.167L398.435,376L487.562,376C487.981,376 488.338,376.236 488.407,376.557C490.066,384.288 490.805,392.116 490.626,399.933L584.95,415.39C585.413,415.465 585.71,415.819 585.612,416.179L573.243,461.844C573.145,462.204 572.691,462.434 572.227,462.359L477.264,446.798C477.015,446.757 476.801,446.632 476.683,446.456C476.564,446.281 476.551,446.074 476.649,445.89C480.347,438.933 483.29,431.621 485.386,424L404.496,424L461.993,468.72C462.285,468.947 462.327,469.304 462.094,469.568C456.496,475.919 450.076,481.961 442.832,487.604L497.449,552.761C497.707,553.069 497.596,553.482 497.199,553.684L446.938,579.17C446.541,579.371 446.01,579.284 445.751,578.976L391.366,514.095C391.228,513.931 391.19,513.728 391.262,513.54C391.335,513.352 391.509,513.199 391.74,513.12C400.776,510.045 409.426,506.34 417.581,502.06L360.857,457.941L360.857,521.67C360.857,521.986 360.571,522.259 360.173,522.323C348.264,524.23 336.135,525.099 324.025,524.931L304.152,598.295C304.055,598.655 303.6,598.885 303.137,598.809L244.426,589.189C243.963,589.113 243.666,588.759 243.764,588.399L263.771,514.539C263.823,514.345 263.984,514.179 264.21,514.086C264.435,513.994 264.702,513.984 264.937,514.06C274.031,516.984 283.598,519.302 293.572,520.936C295.43,521.241 297.287,521.519 299.143,521.772L299.143,453.227L235.585,502.661C235.293,502.888 234.834,502.921 234.494,502.74C226.329,498.386 218.561,493.392 211.305,487.758L132.609,527.664C132.213,527.865 131.682,527.778 131.423,527.469L98.654,488.377C98.396,488.068 98.508,487.655 98.904,487.454L177.246,447.729C177.457,447.622 177.718,447.593 177.959,447.649C178.2,447.705 178.398,447.841 178.499,448.02C182.452,455.048 187.216,461.776 192.719,468.119L249.443,424L167.507,424C167.1,424 166.749,423.778 166.667,423.468C164.215,414.206 163.097,404.772 163.313,395.353Z" style="fill: #EEFF5D; fill-opacity: 1;"></path></svg> <svg xmlns="http://www.w3.org/2000/svg" y="262.6430082426465" viewBox="4.199999809265137 16.670000076293945 226.22999572753906 49.709999084472656" x="258.76878659912626" height="49.709999084472656" width="226.22999572753906" style="overflow: visible;"><g fill="#ffffff" fill-opacity="1" style=""><path d="M4.20 22.07L12.98 22.07L12.98 49.15Q12.98 53.60 15.30 55.95Q17.61 58.30 21.81 58.30L21.81 58.30Q26.08 58.30 28.40 55.95Q30.72 53.60 30.72 49.15L30.72 49.15L30.72 22.07L39.55 22.07L39.55 49.08Q39.55 54.66 37.14 58.52Q34.73 62.37 30.68 64.31Q26.64 66.26 21.69 66.26L21.69 66.26Q16.80 66.26 12.82 64.31Q8.84 62.37 6.52 58.52Q4.20 54.66 4.20 49.08L4.20 49.08L4.20 22.07ZM63.50 30.59Q69.71 30.59 73.53 34.51Q77.35 38.43 77.35 45.45L77.35 45.45L77.35 65.82L68.58 65.82L68.58 46.64Q68.58 42.50 66.51 40.28Q64.44 38.05 60.87 38.05L60.87 38.05Q57.23 38.05 55.13 40.28Q53.03 42.50 53.03 46.64L53.03 46.64L53.03 65.82L44.26 65.82L44.26 31.09L53.03 31.09L53.03 35.42Q54.79 33.16 57.51 31.88Q60.24 30.59 63.50 30.59L63.50 30.59ZM86.38 26.95Q84.06 26.95 82.52 25.48Q80.99 24.01 80.99 21.81L80.99 21.81Q80.99 19.62 82.52 18.15Q84.06 16.67 86.38 16.67L86.38 16.67Q88.70 16.67 90.24 18.15Q91.77 19.62 91.77 21.81L91.77 21.81Q91.77 24.01 90.24 25.48Q88.70 26.95 86.38 26.95L86.38 26.95ZM81.93 31.09L90.71 31.09L90.71 65.82L81.93 65.82L81.93 31.09ZM111.52 31.09L111.52 38.30L105.44 38.30L105.44 65.82L96.53 65.82L96.53 38.30L92.59 38.30L92.59 31.09L96.53 31.09L96.53 29.34Q96.53 22.94 100.17 19.93Q103.81 16.92 111.14 17.11L111.14 17.11L111.14 24.51Q107.94 24.45 106.69 25.58Q105.44 26.70 105.44 29.65L105.44 29.65L105.44 31.09L111.52 31.09ZM117.91 26.95Q115.59 26.95 114.06 25.48Q112.52 24.01 112.52 21.81L112.52 21.81Q112.52 19.62 114.06 18.15Q115.59 16.67 117.91 16.67L117.91 16.67Q120.23 16.67 121.77 18.15Q123.30 19.62 123.30 21.81L123.30 21.81Q123.30 24.01 121.77 25.48Q120.23 26.95 117.91 26.95L117.91 26.95ZM113.46 31.09L122.24 31.09L122.24 65.82L113.46 65.82L113.46 31.09ZM124.87 48.46Q124.87 43.06 127.06 39.02Q129.26 34.98 133.14 32.75Q137.03 30.53 142.04 30.53L142.04 30.53Q148.50 30.53 152.73 33.76Q156.96 36.98 158.40 42.81L158.40 42.81L148.94 42.81Q148.19 40.56 146.40 39.27Q144.61 37.99 141.98 37.99L141.98 37.99Q138.22 37.99 136.03 40.71Q133.83 43.44 133.83 48.46L133.83 48.46Q133.83 53.41 136.03 56.13Q138.22 58.86 141.98 58.86L141.98 58.86Q147.31 58.86 148.94 54.10L148.94 54.10L158.40 54.10Q156.96 59.74 152.70 63.06Q148.44 66.38 142.04 66.38L142.04 66.38Q137.03 66.38 133.14 64.16Q129.26 61.93 127.06 57.89Q124.87 53.85 124.87 48.46L124.87 48.46ZM176.52 66.38Q171.51 66.38 167.49 64.16Q163.48 61.93 161.19 57.86Q158.91 53.78 158.91 48.46L158.91 48.46Q158.91 43.13 161.26 39.05Q163.61 34.98 167.68 32.75Q171.76 30.53 176.77 30.53L176.77 30.53Q181.79 30.53 185.86 32.75Q189.94 34.98 192.29 39.05Q194.64 43.13 194.64 48.46L194.64 48.46Q194.64 53.78 192.22 57.86Q189.81 61.93 185.70 64.16Q181.60 66.38 176.52 66.38L176.52 66.38ZM176.52 58.74Q178.90 58.74 181.00 57.58Q183.10 56.42 184.36 54.10Q185.61 51.78 185.61 48.46L185.61 48.46Q185.61 43.50 183.01 40.84Q180.41 38.18 176.65 38.18L176.65 38.18Q172.89 38.18 170.35 40.84Q167.81 43.50 167.81 48.46L167.81 48.46Q167.81 53.41 170.28 56.07Q172.76 58.74 176.52 58.74L176.52 58.74ZM216.58 30.59Q222.78 30.59 226.61 34.51Q230.43 38.43 230.43 45.45L230.43 45.45L230.43 65.82L221.65 65.82L221.65 46.64Q221.65 42.50 219.59 40.28Q217.52 38.05 213.94 38.05L213.94 38.05Q210.31 38.05 208.21 40.28Q206.11 42.50 206.11 46.64L206.11 46.64L206.11 65.82L197.33 65.82L197.33 31.09L206.11 31.09L206.11 35.42Q207.86 33.16 210.59 31.88Q213.32 30.59 216.58 30.59L216.58 30.59Z" transform="translate(0, 0)"></path></g></svg></svg>




